<?xml version="1.0" encoding="utf-8"?>
<!-- Generator: Adobe Illustrator 26.3.1, SVG Export Plug-In . SVG Version: 6.00 Build 0)  -->
<svg version="1.1" id="Livello_1" xmlns="http://www.w3.org/2000/svg" xmlns:xlink="http://www.w3.org/1999/xlink" x="0px" y="0px"
	 viewBox="0 0 29.3 31.9" style="enable-background:new 0 0 29.3 31.9;" xml:space="preserve">
<style type="text/css">
	.st0{fill:#FFFFFF;}
	.st1{enable-background:new    ;}
</style>
<g id="noun-forward-10-4156386" transform="translate(0 0)">
	<path id="Tracciato_95" class="st0" d="M14.5,0v2.6h0.3c8.1,0.1,14.6,6.8,14.4,14.9c-0.1,7.9-6.5,14.3-14.4,14.4h-0.2
		C7.1,32,0.8,26.3,0,18.9c0-0.3,0.1-0.7,0.3-0.9c0.5-0.5,1.2-0.6,1.8-0.1c0.2,0.2,0.4,0.5,0.4,0.8C3.3,25.4,9.3,30.2,16,29.4
		c6.7-0.8,11.5-6.9,10.7-13.5C26,9.8,20.9,5.2,14.8,5h-0.3v2.5L8,3.8L14.5,0z"/>
	<g class="st1">
		<path class="st0" d="M9.7,21.3v-8l0.5,0.4l-1.9,1l-0.4-1.3l2.6-1.4h0.7v9.3H9.7z M8.1,22v-1.5h4.7V22H8.1z"/>
		<path class="st0" d="M18,22.1c-0.7,0-1.4-0.2-1.9-0.6c-0.5-0.4-0.9-1-1.2-1.7c-0.3-0.8-0.4-1.6-0.4-2.7c0-1,0.1-1.9,0.4-2.7
			c0.3-0.8,0.7-1.3,1.2-1.7c0.5-0.4,1.2-0.6,1.9-0.6c0.7,0,1.4,0.2,1.9,0.6c0.5,0.4,1,1,1.2,1.7c0.3,0.8,0.4,1.6,0.4,2.7
			c0,1-0.1,1.9-0.4,2.7c-0.3,0.8-0.7,1.3-1.2,1.7C19.4,21.9,18.8,22.1,18,22.1z M18,20.8c0.7,0,1.2-0.3,1.6-1
			c0.4-0.6,0.6-1.5,0.6-2.7c0-1.2-0.2-2.1-0.6-2.7c-0.4-0.6-0.9-1-1.6-1c-0.7,0-1.2,0.3-1.6,1c-0.4,0.6-0.6,1.5-0.6,2.7
			c0,1.2,0.2,2.1,0.6,2.7C16.8,20.4,17.3,20.8,18,20.8z"/>
	</g>
</g>
</svg>
