<?xml version="1.0" encoding="utf-8"?>
<!-- Generator: Adobe Illustrator 26.3.1, SVG Export Plug-In . SVG Version: 6.00 Build 0)  -->
<svg version="1.1" id="Livello_1" xmlns="http://www.w3.org/2000/svg" xmlns:xlink="http://www.w3.org/1999/xlink" x="0px" y="0px"
	 viewBox="0 0 29.3 31.9" style="enable-background:new 0 0 29.3 31.9;" xml:space="preserve">
<style type="text/css">
	.st0{fill:#FFFFFF;}
	.st1{enable-background:new    ;}
</style>
<g id="noun-forward-10-4156386" transform="translate(-77.923 -49.012)">
	<path id="Tracciato_95" class="st0" d="M92.7,49v2.6h-0.3c-8.1,0.1-14.6,6.8-14.5,14.9c0.1,7.9,6.5,14.4,14.5,14.5h0.2
		c7.5,0,13.8-5.6,14.6-13c0-0.3-0.1-0.7-0.3-0.9c-0.5-0.5-1.2-0.6-1.8-0.1c-0.2,0.2-0.4,0.5-0.4,0.8c-0.8,6.7-6.8,11.5-13.5,10.7
		c-6.7-0.8-11.5-6.8-10.7-13.5c0.7-6.1,5.8-10.7,11.9-10.8h0.3v2.5l6.6-3.8L92.7,49z"/>
	<g class="st1">
		<path class="st0" d="M88.6,70.3v-8l0.5,0.4l-1.9,1l-0.4-1.3l2.6-1.4h0.7v9.3H88.6z M87,71v-1.5h4.7V71H87z"/>
		<path class="st0" d="M96.9,71.2c-0.7,0-1.4-0.2-1.9-0.6c-0.5-0.4-0.9-1-1.2-1.7c-0.3-0.8-0.4-1.6-0.4-2.7c0-1,0.1-1.9,0.4-2.7
			c0.3-0.8,0.7-1.3,1.2-1.7c0.5-0.4,1.2-0.6,1.9-0.6c0.7,0,1.4,0.2,1.9,0.6c0.5,0.4,1,1,1.2,1.7c0.3,0.8,0.4,1.6,0.4,2.7
			c0,1-0.1,1.9-0.4,2.7c-0.3,0.8-0.7,1.3-1.2,1.7C98.3,70.9,97.7,71.2,96.9,71.2z M96.9,69.8c0.7,0,1.2-0.3,1.6-1
			c0.4-0.6,0.6-1.5,0.6-2.7c0-1.2-0.2-2.1-0.6-2.7c-0.4-0.6-0.9-1-1.6-1c-0.7,0-1.2,0.3-1.6,1c-0.4,0.6-0.6,1.5-0.6,2.7
			c0,1.2,0.2,2.1,0.6,2.7C95.7,69.5,96.3,69.8,96.9,69.8z"/>
	</g>
</g>
</svg>
