<svg xmlns="http://www.w3.org/2000/svg" width="11.5" height="17.5" viewBox="0 0 11.5 17.5">
  <g id="Raggruppa_78" data-name="Raggruppa 78" transform="translate(-49.25 -40.25)">
    <path id="Linea_3" data-name="Linea 3" d="M0,12.75A.75.75,0,0,1-.75,12V0A.75.75,0,0,1,0-.75.75.75,0,0,1,.75,0V12A.75.75,0,0,1,0,12.75Z" transform="translate(50 45)" fill="#fff"/>
    <path id="Linea_4" data-name="Linea 4" d="M0,16.75A.75.75,0,0,1-.75,16V0A.75.75,0,0,1,0-.75.75.75,0,0,1,.75,0V16A.75.75,0,0,1,0,16.75Z" transform="translate(55 41)" fill="#fff"/>
    <path id="Linea_5" data-name="Linea 5" d="M0,10.75A.75.75,0,0,1-.75,10V0A.75.75,0,0,1,0-.75.75.75,0,0,1,.75,0V10A.75.75,0,0,1,0,10.75Z" transform="translate(60 47)" fill="#fff"/>
  </g>
</svg>
