<svg xmlns="http://www.w3.org/2000/svg" width="17.755" height="17.5" viewBox="0 0 17.755 17.5">
  <g id="Raggruppa_79" data-name="Raggruppa 79" transform="translate(-1058.25 -706.25)">
    <g id="back_btn" transform="translate(1018 770) rotate(-90)">
      <g id="Iconly_Light_Volume_Down" data-name="Iconly/Light/Volume Down" transform="translate(67 37) rotate(90)">
        <g id="Volume_Down" data-name="Volume Down" transform="translate(4 4)">
          <path id="Stroke_1" data-name="Stroke 1" d="M9.022,16.75H8.96a2.7,2.7,0,0,1-1.6-.642L3.8,13.219H1.971A2.582,2.582,0,0,1-.6,10.741,26.4,26.4,0,0,1-.6,5.2V5.189A2.637,2.637,0,0,1,1.971,2.782H3.8L7.28-.053a3,3,0,0,1,1.686-.7h.056a2.492,2.492,0,0,1,2.315,1.884l.007.026a9.716,9.716,0,0,1,.223,1.425c.016.151.031.293.048.433a91.729,91.729,0,0,1,0,9.967c-.018.145-.032.292-.048.447a8.538,8.538,0,0,1-.224,1.413l-.006.021A2.492,2.492,0,0,1,9.022,16.75Zm-.042-1.5h.042a1,1,0,0,0,.875-.8,7.342,7.342,0,0,0,.178-1.162c.016-.156.032-.318.052-.482a94.32,94.32,0,0,0,0-9.6c-.019-.154-.035-.309-.051-.459A8.791,8.791,0,0,0,9.9,1.553,1,1,0,0,0,9,.75H8.964a1.7,1.7,0,0,0-.72.346l-.011.009L4.544,4.113a.75.75,0,0,1-.474.169h-2.1A1.16,1.16,0,0,0,.884,5.392a24.965,24.965,0,0,0,0,5.148l0,.014c.065.532.305,1.166,1.087,1.166h2.1a.75.75,0,0,1,.473.168L8.31,14.947l.01.008a1.3,1.3,0,0,0,.641.295Z" fill="#fff"/>
          <path id="Stroke_3" data-name="Stroke 3" d="M0,11.354a.747.747,0,0,1-.427-.134.75.75,0,0,1-.188-1.044A8.593,8.593,0,0,0,.788,5.3,8.594,8.594,0,0,0-.616.428.75.75,0,0,1-.428-.616.75.75,0,0,1,.616-.428,10.1,10.1,0,0,1,2.288,5.3a10.1,10.1,0,0,1-1.673,5.73A.749.749,0,0,1,0,11.354Z" transform="translate(14.717 2.574)" fill="#fff"/>
        </g>
      </g>
    </g>
  </g>
</svg>
