<?xml version="1.0" encoding="utf-8"?>
<!-- Generator: Adobe Illustrator 26.3.1, SVG Export Plug-In . SVG Version: 6.00 Build 0)  -->
<svg version="1.1" id="Livello_1" xmlns="http://www.w3.org/2000/svg" xmlns:xlink="http://www.w3.org/1999/xlink" x="0px" y="0px"
	 viewBox="0 0 17.8 17.5" style="enable-background:new 0 0 17.8 17.5;" xml:space="preserve">
<g>
	<path d="M2.3,12.4c-0.5-0.2-0.6-0.7-0.7-1.1v0c-0.2-1.7-0.2-3.4,0-5.1c0-0.6,0.5-1.1,1.1-1.1h2.1C5,5,5.2,5,5.3,4.9l3.7-3l0,0
		c0.2-0.2,0.5-0.3,0.7-0.3h0c0.4,0,0.8,0.4,0.9,0.8c0.1,0.4,0.1,0.8,0.2,1.2c0,0.1,0,0.2,0,0.4l1.3-1.3c0-0.2,0-0.4-0.1-0.6l0,0
		C11.8,0.8,10.9,0,9.8,0H9.7C9.1,0,8.5,0.3,8,0.7L4.5,3.5H2.7c-1.3,0-2.5,1.1-2.6,2.4v0C0,7.8,0,9.6,0.2,11.5c0,0.8,0.5,1.5,1.1,2
		L2.3,12.4z"/>
	<path d="M16.2,3.1L17.4,2c0.3-0.3,0.3-0.9,0-1.2c-0.3-0.3-0.9-0.3-1.2,0L1.3,15.7c-0.3,0.3-0.3,0.9,0,1.2c0.2,0.2,0.4,0.2,0.6,0.2
		s0.4-0.1,0.6-0.2L5,14.3l3.1,2.5c0.4,0.4,1,0.6,1.6,0.6h0.1c1.1,0,2-0.8,2.3-1.9l0,0c0.1-0.5,0.2-0.9,0.2-1.4c0-0.2,0-0.3,0-0.4
		c0.1-2.3,0.2-4.6,0.1-6.8l2.6-2.6c0.8,1.3,1.2,2.8,1.1,4.4c0,1.7-0.5,3.4-1.4,4.9c0,0,0,0,0,0c-0.2,0.3-0.2,0.8,0.2,1
		c0.1,0.1,0.3,0.1,0.4,0.1c0.2,0,0.5-0.1,0.6-0.3c1.1-1.7,1.7-3.7,1.7-5.7C17.8,6.7,17.3,4.8,16.2,3.1z M10.9,13.6
		c0,0.2,0,0.3-0.1,0.5c0,0.4-0.1,0.8-0.2,1.2c-0.1,0.4-0.4,0.8-0.9,0.8h0h0c-0.2,0-0.5-0.1-0.6-0.3l0,0l-3-2.4L11,8.4
		C11,10.1,11,11.8,10.9,13.6z"/>
</g>
</svg>
