<svg xmlns="http://www.w3.org/2000/svg" width="16.183" height="17.5" viewBox="0 0 16.183 17.5">
  <g id="Iconly_Light_Downlaod" data-name="Iconly/Light/Downlaod" transform="translate(-2.645 19.622) rotate(-90)">
    <g id="Downlaod" transform="translate(2.872 3.395)">
      <path id="Stroke_1" data-name="Stroke 1" d="M10.414.75H0A.75.75,0,0,1-.75,0,.75.75,0,0,1,0-.75H10.414a.75.75,0,0,1,.75.75A.75.75,0,0,1,10.414.75Z" transform="translate(8 0) rotate(90)" fill="#fff"/>
      <path id="Stroke_3" data-name="Stroke 3" d="M0,5.794a.748.748,0,0,1-.531-.221.75.75,0,0,1,0-1.061l2-1.991-2-1.991a.75.75,0,0,1,0-1.061.75.75,0,0,1,1.061,0L3.062,1.991a.75.75,0,0,1,0,1.063L.529,5.575A.748.748,0,0,1,0,5.794Z" transform="translate(10.522 7.882) rotate(90)" fill="#fff"/>
      <path id="Stroke_4" data-name="Stroke 4" d="M7.4,16.75H3.178A3.932,3.932,0,0,1-.75,12.822v-.815a.75.75,0,0,1,.75-.75.75.75,0,0,1,.75.75v.815A2.431,2.431,0,0,0,3.178,15.25H7.4a2.44,2.44,0,0,0,2.437-2.437V3.178A2.431,2.431,0,0,0,7.411.75H3.187A2.439,2.439,0,0,0,.75,3.186v.807a.75.75,0,0,1-.75.75.75.75,0,0,1-.75-.75V3.186A3.941,3.941,0,0,1,3.187-.75H7.411a3.933,3.933,0,0,1,3.928,3.928v9.635A3.941,3.941,0,0,1,7.4,16.75Z" transform="translate(16 4.093) rotate(90)" fill="#fff"/>
    </g>
  </g>
</svg>
