<svg xmlns="http://www.w3.org/2000/svg" viewBox="0 0 64 64" width="64" height="64">
	<style>
		tspan { white-space:pre }
		.shp0 { fill: none } 
		.shp1 { fill: #ffffff } 
		.shp2 { opacity: 0.2;fill: #ffffff } 
		.shp3 { opacity: 0.149;fill: #263238 } 
		.shp4 { fill: #fab908 } 
		.shp5 { fill: #0066d9 } 
		.shp6 { fill: #4285f4 } 
		.shp7 { fill: #ea4335 } 
		.shp8 { fill: #34a853 } 
	</style>
	<g id="F01_listen_on_icon">
		<g id="Group">
			<g id="logo_google_search_round_48dp">
				<path id="Shape" class="shp0" d="M0 0L64 0L64 64L0 64L0 0Z" />
				<path id="Oval" class="shp1" d="M32 62.95C14.89 62.95 1.05 49.11 1.05 32C1.05 14.89 14.89 1.05 32 1.05C49.11 1.05 62.95 14.89 62.95 32C62.95 49.11 49.11 62.95 32 62.95Z" />
				<path id="Shape" class="shp2" d="M32 1.38C49.03 1.38 62.86 15.15 62.95 32.17L62.95 32.01C62.95 14.92 49.09 1.07 32 1.07C14.91 1.05 1.05 14.91 1.05 32L1.05 32.15C1.14 15.15 14.97 1.38 32 1.38Z" />
				<path id="Shape" class="shp3" d="M32 62.62C49.03 62.62 62.86 48.85 62.95 31.83L62.95 31.99C62.95 49.08 49.09 62.93 32 62.93C14.91 62.95 1.05 49.09 1.05 32L1.05 31.85C1.14 48.85 14.97 62.62 32 62.62Z" />
			</g>
			<g id="_logo_Podcasts_192px">
				<path id="Shape" class="shp4" d="M29.36 24.33L29.36 30.72L29.36 33.28L29.36 39.67L34.64 39.67L34.64 33.28L34.64 30.72L34.64 24.33L29.36 24.33Z" />
				<path id="Oval" class="shp5" d="M13.54 33.2C12.08 33.2 10.9 32.02 10.9 30.56C10.9 29.1 12.08 27.92 13.54 27.92C15 27.92 16.18 29.1 16.18 30.56C16.18 32.02 15 33.2 13.54 33.2Z" />
				<path id="Oval" class="shp5" d="M13.54 36.08C12.08 36.08 10.9 34.9 10.9 33.44C10.9 31.98 12.08 30.8 13.54 30.8C15 30.8 16.18 31.98 16.18 33.44C16.18 34.9 15 36.08 13.54 36.08Z" />
				<path id="Rectangle-path" class="shp5" d="M10.9 30.56L16.18 30.56L16.18 33.44L10.9 33.44L10.9 30.56Z" />
				<path id="Oval" class="shp6" d="M50.46 36.08C49 36.08 47.82 34.9 47.82 33.44C47.82 31.98 49 30.8 50.46 30.8C51.92 30.8 53.1 31.98 53.1 33.44C53.1 34.9 51.92 36.08 50.46 36.08Z" />
				<path id="Oval" class="shp6" d="M50.46 33.2C49 33.2 47.82 32.02 47.82 30.56C47.82 29.1 49 27.92 50.46 27.92C51.92 27.92 53.1 29.1 53.1 30.56C53.1 32.02 51.92 33.2 50.46 33.2Z" />
				<path id="Rectangle-path" class="shp6" d="M53.1 33.44L47.82 33.44L47.82 30.56L53.1 30.56L53.1 33.44Z" />
				<path id="Oval" class="shp7" d="M22.65 41.83C21.19 41.83 20.01 40.65 20.01 39.19C20.01 37.73 21.19 36.56 22.65 36.56C24.11 36.56 25.29 37.73 25.29 39.19C25.29 40.65 24.11 41.83 22.65 41.83Z" />
				<path id="Oval" class="shp7" d="M22.65 44.71C21.19 44.71 20.01 43.53 20.01 42.07C20.01 40.61 21.19 39.43 22.65 39.43C24.11 39.43 25.29 40.61 25.29 42.07C25.29 43.53 24.11 44.71 22.65 44.71Z" />
				<path id="Rectangle-path" class="shp7" d="M20.01 39.19L25.29 39.19L25.29 42.07L20.01 42.07L20.01 39.19Z" />
				<path id="Oval" class="shp7" d="M22.65 24.57C21.19 24.57 20.01 23.39 20.01 21.93C20.01 20.47 21.19 19.29 22.65 19.29C24.11 19.29 25.29 20.47 25.29 21.93C25.29 23.39 24.11 24.57 22.65 24.57Z" />
				<path id="Oval" class="shp7" d="M22.65 33.92C21.19 33.92 20.01 32.74 20.01 31.28C20.01 29.82 21.19 28.64 22.65 28.64C24.11 28.64 25.29 29.82 25.29 31.28C25.29 32.74 24.11 33.92 22.65 33.92Z" />
				<path id="Rectangle-path" class="shp7" d="M20.01 21.93L25.29 21.93L25.29 31.34L20.01 31.34L20.01 21.93Z" />
				<path id="Oval" class="shp8" d="M41.35 27.44C39.89 27.44 38.71 26.27 38.71 24.81C38.71 23.35 39.89 22.17 41.35 22.17C42.81 22.17 43.99 23.35 43.99 24.81C43.99 26.27 42.81 27.44 41.35 27.44Z" />
				<path id="Oval" class="shp8" d="M41.35 24.57C39.89 24.57 38.71 23.39 38.71 21.93C38.71 20.47 39.89 19.29 41.35 19.29C42.81 19.29 43.99 20.47 43.99 21.93C43.99 23.39 42.81 24.57 41.35 24.57Z" />
				<path id="Rectangle-path" class="shp8" d="M43.99 24.81L38.71 24.81L38.71 21.93L43.99 21.93L43.99 24.81Z" />
				<path id="Oval" class="shp4" d="M32 19.05C30.54 19.05 29.36 17.87 29.36 16.42C29.36 14.96 30.54 13.78 32 13.78C33.46 13.78 34.64 14.96 34.64 16.42C34.64 17.87 33.46 19.05 32 19.05Z" />
				<path id="Oval" class="shp4" d="M32 16.18C30.54 16.18 29.36 15 29.36 13.54C29.36 12.08 30.54 10.9 32 10.9C33.46 10.9 34.64 12.08 34.64 13.54C34.64 15 33.46 16.18 32 16.18Z" />
				<path id="Rectangle-path" class="shp4" d="M34.64 16.42L29.36 16.42L29.36 13.54L34.64 13.54L34.64 16.42Z" />
				<path id="Oval" class="shp4" d="M32 53.1C30.54 53.1 29.36 51.92 29.36 50.46C29.36 49 30.54 47.82 32 47.82C33.46 47.82 34.64 49 34.64 50.46C34.64 51.92 33.46 53.1 32 53.1Z" />
				<path id="Oval" class="shp4" d="M32 50.22C30.54 50.22 29.36 49.04 29.36 47.58C29.36 46.13 30.54 44.95 32 44.95C33.46 44.95 34.64 46.13 34.64 47.58C34.64 49.04 33.46 50.22 32 50.22Z" />
				<path id="Rectangle-path" class="shp4" d="M34.64 50.46L29.36 50.46L29.36 47.58L34.64 47.58L34.64 50.46Z" />
				<path id="Oval" class="shp8" d="M41.35 44.71C39.89 44.71 38.71 43.53 38.71 42.07C38.71 40.61 39.89 39.43 41.35 39.43C42.81 39.43 43.99 40.61 43.99 42.07C43.99 43.53 42.81 44.71 41.35 44.71Z" />
				<path id="Oval" class="shp8" d="M41.35 35.36C39.89 35.36 38.71 34.18 38.71 32.72C38.71 31.26 39.89 30.08 41.35 30.08C42.81 30.08 43.99 31.26 43.99 32.72C43.99 34.18 42.81 35.36 41.35 35.36Z" />
				<path id="Rectangle-path" class="shp8" d="M43.99 42.07L38.71 42.07L38.71 32.72L43.99 32.72L43.99 42.07Z" />
				<path id="Oval" class="shp4" d="M32 26.97C30.54 26.97 29.36 25.79 29.36 24.33C29.36 22.87 30.54 21.69 32 21.69C33.46 21.69 34.64 22.87 34.64 24.33C34.64 25.79 33.46 26.97 32 26.97Z" />
				<path id="Oval" class="shp4" d="M32 42.31C30.54 42.31 29.36 41.13 29.36 39.67C29.36 38.21 30.54 37.03 32 37.03C33.46 37.03 34.64 38.21 34.64 39.67C34.64 41.13 33.46 42.31 32 42.31Z" />
			</g>
		</g>
	</g>
</svg>