<svg xmlns="http://www.w3.org/2000/svg" width="24" height="24" viewBox="0 0 24 24">
  <path id="Esclusione_1" data-name="Esclusione 1" d="M12,24A12,12,0,0,1,7.329.943a12,12,0,0,1,9.342,22.114A11.924,11.924,0,0,1,12,24ZM12,6c-1.068,0-2.017.016-2.475.042a3.542,3.542,0,0,0-2.514.967,3.542,3.542,0,0,0-.969,2.514c-.056.994-.056,3.955,0,4.95a3.525,3.525,0,0,0,.969,2.514,3.558,3.558,0,0,0,2.514.969C9.983,17.981,10.932,18,12,18s2.017-.016,2.475-.042a3.527,3.527,0,0,0,2.514-.969,3.553,3.553,0,0,0,.969-2.514c.056-.994.056-3.954,0-4.948a3.528,3.528,0,0,0-.969-2.514,3.549,3.549,0,0,0-2.514-.969C14.017,6.016,13.069,6,12,6Zm1.063,10.924c-.226,0-.443,0-.634,0l-.428,0-.418,0c-.189,0-.4,0-.62,0a8.606,8.606,0,0,1-2.5-.248,2.03,2.03,0,0,1-1.14-1.14,10.8,10.8,0,0,1-.244-3.108c0-.169,0-.308,0-.428s0-.264,0-.415v0a10.931,10.931,0,0,1,.244-3.118,2.028,2.028,0,0,1,1.14-1.14,8.447,8.447,0,0,1,2.475-.248c.225,0,.441,0,.633,0l.429,0,.417,0h0c.187,0,.4,0,.617,0a8.6,8.6,0,0,1,2.5.248,2.028,2.028,0,0,1,1.14,1.14,10.8,10.8,0,0,1,.244,3.108c0,.169,0,.308,0,.428s0,.259,0,.428a10.8,10.8,0,0,1-.244,3.109,2.029,2.029,0,0,1-1.14,1.14A8.445,8.445,0,0,1,13.063,16.924ZM12,8.923a3.071,3.071,0,1,0,2.176.9A3.056,3.056,0,0,0,12,8.923Zm3.2-.843a.717.717,0,1,0,.718.718A.718.718,0,0,0,15.2,8.08ZM12,14a2,2,0,1,1,2-2A2,2,0,0,1,12,14Z" fill="#fff"/>
</svg>
