<svg xmlns="http://www.w3.org/2000/svg" width="13" height="10" viewBox="0 0 13 10">
  <g id="Raggruppa_124" data-name="Raggruppa 124" transform="translate(-889.929 -558.5)">
    <path id="Linea_8" data-name="Linea 8" d="M11,1H0A1,1,0,0,1-1,0,1,1,0,0,1,0-1H11a1,1,0,0,1,1,1A1,1,0,0,1,11,1Z" transform="translate(890.929 559.5)" />
    <path id="Linea_9" data-name="Linea 9" d="M11,1H0A1,1,0,0,1-1,0,1,1,0,0,1,0-1H11a1,1,0,0,1,1,1A1,1,0,0,1,11,1Z" transform="translate(890.929 563.5)" />
    <path id="Linea_10" data-name="Linea 10" d="M11,1H0A1,1,0,0,1-1,0,1,1,0,0,1,0-1H11a1,1,0,0,1,1,1A1,1,0,0,1,11,1Z" transform="translate(890.929 567.5)" />
  </g>
</svg>
