<svg xmlns="http://www.w3.org/2000/svg" width="15" height="13.604" viewBox="0 0 15 13.604">
  <g id="noun-create-playlist-1126662" transform="translate(-122.25 -78.749)">
    <path id="Tracciato_105" data-name="Tracciato 105" d="M123.058,78.749a.555.555,0,0,0-.56.555v3.885a.555.555,0,0,0,.874.454l2.775-1.942a.555.555,0,0,0,0-.908l-2.775-1.942a.555.555,0,0,0-.313-.1Z" transform="translate(-0.24 0)" fill="#fff"/>
    <path id="Tracciato_106" data-name="Tracciato 106" d="M280.313,140a.555.555,0,1,0,0,1.11h8.324a.555.555,0,1,0,0-1.11Z" transform="translate(-152.505 -59.307)" fill="#fff"/>
    <path id="Tracciato_107" data-name="Tracciato 107" d="M122.813,280a.555.555,0,1,0,0,1.11h13.319a.555.555,0,1,0,0-1.11Z" transform="translate(0 -194.867)" fill="#fff"/>
    <path id="Tracciato_108" data-name="Tracciato 108" d="M122.813,420a.555.555,0,1,0,0,1.11h8.324a.555.555,0,1,0,0-1.11Z" transform="translate(0 -330.427)" fill="#fff"/>
    <path id="Tracciato_109" data-name="Tracciato 109" d="M456.993,367.248a.555.555,0,0,0-.564.563v1.11h-1.11a.555.555,0,1,0,0,1.11h1.11v1.11a.555.555,0,1,0,1.11,0v-1.11h1.11a.555.555,0,1,0,0-1.11h-1.11v-1.11a.555.555,0,0,0-.546-.563Z" transform="translate(-321.962 -279.35)" fill="#fff"/>
  </g>
</svg>
