<svg xmlns="http://www.w3.org/2000/svg" viewBox="0 0 64 64" width="64" height="64">
	<style>
		tspan { white-space:pre }
		.shp0 { fill: #f44336 } 
		.shp1 { fill: #ffffff } 
	</style>
	<path id="Layer" class="shp0" d="M6.73 57.27C1.82 52.36 0 44.36 0 32C0 19.64 1.82 11.64 6.73 6.73C11.64 1.82 19.64 0 32 0C44.36 0 52.36 1.82 57.27 6.73C62.18 11.64 64 19.64 64 32C64 44.36 62.18 52.36 57.27 57.27C52.36 62.18 44.36 64 32 64C19.64 64 11.64 62.18 6.73 57.27Z" />
	<path id="Layer" fill-rule="evenodd" class="shp1" d="M31.42 48.63C31.5 48.63 31.57 48.65 31.64 48.68C31.71 48.71 31.77 48.76 31.83 48.81C31.88 48.86 31.92 48.93 31.95 49C31.98 49.07 31.99 49.14 31.99 49.22L31.99 54.06C31.99 54.14 31.97 54.22 31.94 54.29C31.91 54.37 31.87 54.43 31.81 54.49C31.75 54.54 31.69 54.58 31.61 54.61C31.54 54.64 31.46 54.66 31.38 54.65C22.33 54.41 14.28 48.8 10.93 40.38C7.58 31.97 9.55 22.37 15.96 15.96C22.36 9.55 31.97 7.58 40.38 10.93C48.8 14.28 54.41 22.33 54.65 31.38C54.65 31.46 54.64 31.54 54.61 31.61C54.58 31.69 54.54 31.75 54.49 31.81C54.43 31.87 54.36 31.91 54.29 31.94C54.22 31.97 54.14 31.99 54.06 31.99L49.22 31.99C49.14 31.99 49.07 31.98 49 31.95C48.93 31.92 48.86 31.88 48.81 31.83C48.76 31.77 48.71 31.71 48.68 31.64C48.65 31.57 48.63 31.5 48.63 31.42C48.4 24.8 44.27 18.94 38.1 16.5C31.93 14.07 24.91 15.53 20.22 20.22C15.53 24.91 14.07 31.93 16.5 38.1C18.94 44.27 24.8 48.4 31.42 48.63ZM31.99 18.88C33.66 18.88 35.31 19.2 36.86 19.82C38.41 20.44 39.83 21.35 41.04 22.51C42.24 23.66 43.22 25.03 43.91 26.55C44.61 28.07 45 29.71 45.08 31.37C45.09 31.45 45.07 31.53 45.05 31.61C45.02 31.68 44.97 31.75 44.92 31.81C44.86 31.87 44.8 31.91 44.72 31.94C44.65 31.97 44.57 31.99 44.49 31.99L40.65 31.99C40.57 31.99 40.5 31.97 40.43 31.95C40.37 31.92 40.3 31.88 40.25 31.83C40.19 31.78 40.15 31.72 40.12 31.65C40.09 31.59 40.07 31.52 40.06 31.44C39.85 28.28 37.8 25.53 34.83 24.42C31.86 23.3 28.51 24.03 26.27 26.27C24.03 28.51 23.3 31.86 24.42 34.83C25.53 37.8 28.28 39.85 31.44 40.06C31.52 40.07 31.59 40.09 31.65 40.12C31.72 40.15 31.78 40.2 31.83 40.25C31.88 40.3 31.92 40.37 31.95 40.43C31.97 40.5 31.99 40.57 31.99 40.65L31.99 44.49C31.99 44.57 31.97 44.65 31.94 44.72C31.91 44.8 31.87 44.86 31.81 44.92C31.75 44.97 31.68 45.02 31.61 45.05C31.53 45.07 31.45 45.09 31.37 45.08C27.96 44.92 24.74 43.43 22.4 40.92C20.07 38.42 18.81 35.1 18.89 31.68C18.97 28.26 20.39 25.01 22.84 22.62C25.28 20.22 28.57 18.89 31.99 18.88Z" />
</svg>