<svg xmlns="http://www.w3.org/2000/svg" viewBox="0 0 128 128" width="64" height="64">
	<style>
		tspan { white-space:pre }
		.shp0 { fill: #ffa500 } 
		.shp1 { fill: #ffffff } 
	</style>
	<path id="Layer" class="shp0" d="M24 0L104 0C117.27 0 128 10.73 128 24L128 104C128 117.27 117.27 128 104 128L24 128C10.73 128 0 117.27 0 104L0 24C0 10.73 10.73 0 24 0Z" />
	<path id="Layer" class="shp1" d="M32 112C23.15 112 16 104.85 16 96C16 87.15 23.15 80 32 80C40.85 80 48 87.15 48 96C48 104.85 40.85 112 32 112Z" />
	<path id="Layer" class="shp1" d="M16 64C22.3 64 28.55 65.24 34.37 67.65C40.19 70.07 45.48 73.6 49.94 78.06C54.4 82.52 57.93 87.81 60.35 93.63C62.76 99.45 64 105.7 64 112L80 112C80 103.6 78.34 95.27 75.13 87.51C71.91 79.74 67.2 72.69 61.25 66.75C55.31 60.8 48.26 56.09 40.49 52.87C32.73 49.66 24.4 48 16 48L16 64Z" />
	<path id="Layer" class="shp1" d="M16 32C26.51 32 36.91 34.07 46.61 38.09C56.32 42.11 65.14 48 72.57 55.43C80 62.86 85.89 71.68 89.91 81.39C93.93 91.09 96 101.49 96 112L112 112C112 99.39 109.52 86.91 104.69 75.26C99.87 63.62 92.8 53.03 83.88 44.12C74.97 35.2 64.38 28.13 52.74 23.31C41.09 18.48 28.61 16 16 16L16 32Z" />
</svg>