<svg xmlns="http://www.w3.org/2000/svg" viewBox="0 0 168 168" width="64" height="64">
	<style>
		tspan { white-space:pre }
		.shp0 { fill: #ffffff } 
		.shp1 { fill: #1ed760 } 
	</style>
	<path id="Layer 1" class="shp0" d="M83 158C42.08 158 9 124.92 9 84C9 43.08 42.08 10 83 10C123.92 10 157 43.08 157 84C157 124.92 123.92 158 83 158Z" />
	<path id="Layer" fill-rule="evenodd" class="shp1" d="M84 0.28C130.25 0.28 167.74 37.77 167.74 84.02C167.74 130.27 130.25 167.76 84 167.76C37.75 167.76 0.25 130.27 0.25 84.02C0.25 37.77 37.75 0.28 84 0.28ZM122.4 121.06C123.91 118.6 123.13 115.39 120.67 113.88C98.6 100.39 71.23 97.25 39.33 104.54C36.52 105.18 34.76 107.98 35.41 110.79C36.05 113.6 38.85 115.36 41.66 114.72C70.81 108.06 95.56 110.78 115.22 122.79C117.68 124.3 120.9 123.52 122.4 121.06ZM130.5 89.28C104.65 73.39 66.84 68.92 36.43 78.15C32.98 79.2 31.03 82.84 32.07 86.29C33.12 89.74 36.77 91.69 40.22 90.64C66.85 82.56 101.16 86.57 123.67 100.41C126.74 102.3 130.76 101.33 132.65 98.25C134.54 95.19 133.57 91.17 130.5 89.28ZM144.26 71.77C146.47 68.05 145.25 63.25 141.52 61.04C110.45 42.59 61.27 40.85 31.69 49.83C27.55 51.09 25.22 55.47 26.47 59.61C27.73 63.74 32.1 66.08 36.24 64.82C62.01 57 106.54 58.48 133.53 74.51C137.24 76.72 142.06 75.49 144.26 71.77Z" />
</svg>