<svg xmlns="http://www.w3.org/2000/svg" width="24" height="24" viewBox="0 0 24 24">
  <path id="Esclusione_2" data-name="Esclusione 2" d="M12,24A12,12,0,0,1,7.329.943a12,12,0,0,1,9.342,22.114A11.924,11.924,0,0,1,12,24ZM5.4,15.823h0A7.437,7.437,0,0,0,9.431,17a7.563,7.563,0,0,0,3.2-.679,7.065,7.065,0,0,0,2.341-1.754A7.725,7.725,0,0,0,16.9,9.534c0-.112,0-.228-.008-.342a5.606,5.606,0,0,0,1.316-1.356,5.244,5.244,0,0,1-1.511.406,2.615,2.615,0,0,0,1.154-1.447,5.2,5.2,0,0,1-1.666.634,2.627,2.627,0,0,0-4.542,1.8,2.969,2.969,0,0,0,.065.6A7.475,7.475,0,0,1,6.294,7.079,2.591,2.591,0,0,0,5.936,8.4a2.623,2.623,0,0,0,1.17,2.186,2.651,2.651,0,0,1-1.186-.333v.032a2.625,2.625,0,0,0,2.1,2.576,2.8,2.8,0,0,1-.691.09,3.224,3.224,0,0,1-.5-.041,2.63,2.63,0,0,0,2.454,1.82,5.232,5.232,0,0,1-3.258,1.122A5.4,5.4,0,0,1,5.4,15.823Z" fill="#fff"/>
</svg>
